<?xml version="1.0" encoding="UTF-8"?>
<svg xmlns="http://www.w3.org/2000/svg" xmlns:xlink="http://www.w3.org/1999/xlink" viewBox="0 0 30 30" width="30px" height="30px">
<g id="surface7220706">
<path style=" stroke:none;fill-rule:nonzero;fill:rgb(13.333334%,60.392159%,52.156866%);fill-opacity:1;" d="M 21.25 3.75 L 8.75 3.75 C 5.988281 3.75 3.75 5.988281 3.75 8.75 L 3.75 21.25 C 3.75 24.011719 5.988281 26.25 8.75 26.25 L 21.25 26.25 C 24.011719 26.25 26.25 24.011719 26.25 21.25 L 26.25 8.75 C 26.25 5.988281 24.011719 3.75 21.25 3.75 Z M 21.3125 11.890625 C 21.3125 12 21.3125 12.105469 21.3125 12.320312 C 21.3125 16.390625 18.203125 21.109375 12.527344 21.109375 C 10.8125 21.109375 9.203125 20.570312 7.8125 19.714844 C 8.027344 19.714844 8.347656 19.714844 8.5625 19.714844 C 9.953125 19.714844 11.347656 19.179688 12.421875 18.429688 C 11.027344 18.429688 9.957031 17.464844 9.527344 16.285156 C 9.742188 16.285156 9.957031 16.394531 10.0625 16.394531 C 10.386719 16.394531 10.601562 16.394531 10.921875 16.285156 C 9.527344 15.964844 8.457031 14.785156 8.457031 13.285156 C 8.886719 13.5 9.316406 13.609375 9.851562 13.714844 C 8.992188 12.964844 8.457031 12.109375 8.457031 11.035156 C 8.457031 10.5 8.566406 9.964844 8.886719 9.535156 C 10.386719 11.359375 12.636719 12.644531 15.207031 12.75 C 15.207031 12.535156 15.101562 12.320312 15.101562 12 C 15.101562 10.285156 16.492188 8.890625 18.207031 8.890625 C 19.066406 8.890625 19.921875 9.214844 20.457031 9.855469 C 21.207031 9.75 21.851562 9.425781 22.386719 9.105469 C 22.171875 9.855469 21.636719 10.390625 20.992188 10.820312 C 21.636719 10.710938 22.171875 10.605469 22.816406 10.285156 C 22.382812 10.929688 21.847656 11.464844 21.3125 11.890625 Z M 21.3125 11.890625 "/>
</g>
</svg>
